<?xml version="1.0" standalone="no"?><!-- Generator: Gravit.io --><svg xmlns="http://www.w3.org/2000/svg" xmlns:xlink="http://www.w3.org/1999/xlink" style="isolation:isolate" viewBox="0 0 1024 1024" width="1024" height="1024"><defs><clipPath id="_clipPath_oxuDrWEYtNU9aSTraOzOxtvrswebn1FO"><rect width="1024" height="1024"/></clipPath></defs><g clip-path="url(#_clipPath_oxuDrWEYtNU9aSTraOzOxtvrswebn1FO)"><linearGradient id="_lgradient_0" x1="32.21223138974907%" y1="4.501577229345277%" x2="74.10864831147734%" y2="92.63733233907855%"><stop offset="0%" stop-opacity="1" style="stop-color:rgb(255,4,35)"/><stop offset="100%" stop-opacity="1" style="stop-color:rgb(44,53,167)"/></linearGradient><path d=" M 143.5 512.5 C 143.5 308.291 309.291 142.5 513.5 142.5 C 717.709 142.5 883.5 308.291 883.5 512.5 C 883.5 716.709 717.709 882.5 513.5 882.5 C 309.291 882.5 143.5 716.709 143.5 512.5 Z " fill="url(#_lgradient_0)"/><g opacity="0.5"><path d=" M 312.5 700.454 C 312.5 693.831 317.877 688.454 324.5 688.454 C 331.123 688.454 336.5 693.831 336.5 700.454 C 336.5 707.077 331.123 712.454 324.5 712.454 C 317.877 712.454 312.5 707.077 312.5 700.454 Z " fill="rgb(235,235,235)"/></g><g opacity="0.5"><path d=" M 632.5 400.454 C 632.5 393.831 637.877 388.454 644.5 388.454 C 651.123 388.454 656.5 393.831 656.5 400.454 C 656.5 407.077 651.123 412.454 644.5 412.454 C 637.877 412.454 632.5 407.077 632.5 400.454 Z " fill="rgb(235,235,235)"/></g><g opacity="0.5"><path d=" M 500 541.952 C 500 535.329 505.377 529.952 512 529.952 C 518.623 529.952 524 535.329 524 541.952 C 524 548.575 518.623 553.952 512 553.952 C 505.377 553.952 500 548.575 500 541.952 Z " fill="rgb(235,235,235)"/></g><g opacity="0.5"><path d=" M 447.5 530 C 447.5 523.377 452.877 518 459.5 518 C 466.123 518 471.5 523.377 471.5 530 C 471.5 536.623 466.123 542 459.5 542 C 452.877 542 447.5 536.623 447.5 530 Z " fill="rgb(235,235,235)"/></g><g opacity="0.5"><path d=" M 430.5 408.524 C 430.5 401.901 435.877 396.524 442.5 396.524 C 449.123 396.524 454.5 401.901 454.5 408.524 C 454.5 415.147 449.123 420.524 442.5 420.524 C 435.877 420.524 430.5 415.147 430.5 408.524 Z " fill="rgb(235,235,235)"/></g><g opacity="0.5"><path d=" M 656 319.572 C 656 312.949 661.377 307.572 668 307.572 C 674.623 307.572 680 312.949 680 319.572 C 680 326.195 674.623 331.572 668 331.572 C 661.377 331.572 656 326.195 656 319.572 Z " fill="rgb(235,235,235)"/></g><g opacity="0.5"><path d=" M 523.5 461.07 C 523.5 454.447 528.877 449.07 535.5 449.07 C 542.123 449.07 547.5 454.447 547.5 461.07 C 547.5 467.693 542.123 473.07 535.5 473.07 C 528.877 473.07 523.5 467.693 523.5 461.07 Z " fill="rgb(235,235,235)"/></g><g opacity="0.5"><path d=" M 672.5 516.476 C 672.5 509.853 677.877 504.476 684.5 504.476 C 691.123 504.476 696.5 509.853 696.5 516.476 C 696.5 523.099 691.123 528.476 684.5 528.476 C 677.877 528.476 672.5 523.099 672.5 516.476 Z " fill="rgb(235,235,235)"/></g><g opacity="0.5"><path d=" M 540 657.974 C 540 651.351 545.377 645.974 552 645.974 C 558.623 645.974 564 651.351 564 657.974 C 564 664.597 558.623 669.974 552 669.974 C 545.377 669.974 540 664.597 540 657.974 Z " fill="rgb(235,235,235)"/></g><g opacity="0.5"><path d=" M 704 424.454 C 704 417.831 709.377 412.454 716 412.454 C 722.623 412.454 728 417.831 728 424.454 C 728 431.077 722.623 436.454 716 436.454 C 709.377 436.454 704 431.077 704 424.454 Z " fill="rgb(235,235,235)"/></g><g opacity="0.5"><path d=" M 535 358.524 C 535 351.901 540.377 346.524 547 346.524 C 553.623 346.524 559 351.901 559 358.524 C 559 365.147 553.623 370.524 547 370.524 C 540.377 370.524 535 365.147 535 358.524 Z " fill="rgb(235,235,235)"/></g><g opacity="0.5"><path d=" M 272.5 447 C 272.5 440.377 277.877 435 284.5 435 C 291.123 435 296.5 440.377 296.5 447 C 296.5 453.623 291.123 459 284.5 459 C 277.877 459 272.5 453.623 272.5 447 Z " fill="rgb(235,235,235)"/></g><g opacity="0.5"><path d=" M 176 514.476 C 176 507.853 181.377 502.476 188 502.476 C 194.623 502.476 200 507.853 200 514.476 C 200 521.099 194.623 526.476 188 526.476 C 181.377 526.476 176 521.099 176 514.476 Z " fill="rgb(235,235,235)"/></g><g opacity="0.5"><path d=" M 189.5 606.428 C 189.5 598.149 196.221 591.428 204.5 591.428 C 212.779 591.428 219.5 598.149 219.5 606.428 C 219.5 614.706 212.779 621.428 204.5 621.428 C 196.221 621.428 189.5 614.706 189.5 606.428 Z " fill="rgb(235,235,235)"/></g><g opacity="0.5"><path d=" M 751 426 C 751 417.721 757.721 411 766 411 C 774.279 411 781 417.721 781 426 C 781 434.279 774.279 441 766 441 C 757.721 441 751 434.279 751 426 Z " fill="rgb(235,235,235)"/></g><g opacity="0.5"><path d=" M 618.5 567.498 C 618.5 559.219 625.221 552.498 633.5 552.498 C 641.779 552.498 648.5 559.219 648.5 567.498 C 648.5 575.776 641.779 582.498 633.5 582.498 C 625.221 582.498 618.5 575.776 618.5 567.498 Z " fill="rgb(235,235,235)"/></g><g opacity="0.5"><path d=" M 566 555.546 C 566 547.267 572.721 540.546 581 540.546 C 589.279 540.546 596 547.267 596 555.546 C 596 563.825 589.279 570.546 581 570.546 C 572.721 570.546 566 563.825 566 555.546 Z " fill="rgb(235,235,235)"/></g><g opacity="0.5"><path d=" M 433.5 697.044 C 433.5 688.765 440.221 682.044 448.5 682.044 C 456.779 682.044 463.5 688.765 463.5 697.044 C 463.5 705.322 456.779 712.044 448.5 712.044 C 440.221 712.044 433.5 705.322 433.5 697.044 Z " fill="rgb(235,235,235)"/></g><g opacity="0.5"><path d=" M 549 434.07 C 549 425.791 555.721 419.07 564 419.07 C 572.279 419.07 579 425.791 579 434.07 C 579 442.349 572.279 449.07 564 449.07 C 555.721 449.07 549 442.349 549 434.07 Z " fill="rgb(235,235,235)"/></g><g opacity="0.5"><path d=" M 416.5 575.568 C 416.5 567.289 423.221 560.568 431.5 560.568 C 439.779 560.568 446.5 567.289 446.5 575.568 C 446.5 583.846 439.779 590.568 431.5 590.568 C 423.221 590.568 416.5 583.846 416.5 575.568 Z " fill="rgb(235,235,235)"/></g><g opacity="0.5"><path d=" M 781.397 336.698 C 786.412 333.479 794.114 336.522 798.586 343.489 C 803.058 350.456 802.618 358.725 797.603 361.944 C 792.588 365.163 784.886 362.12 780.414 355.154 C 775.942 348.187 776.382 339.917 781.397 336.698 Z " fill="rgb(235,235,235)"/></g><g opacity="0.5"><path d=" M 791 542.022 C 791 533.743 797.721 527.022 806 527.022 C 814.279 527.022 821 533.743 821 542.022 C 821 550.301 814.279 557.022 806 557.022 C 797.721 557.022 791 550.301 791 542.022 Z " fill="rgb(235,235,235)"/></g><g opacity="0.5"><path d=" M 833.577 441.522 C 838.371 440.223 844.021 445.655 846.187 453.646 C 848.352 461.636 846.218 469.179 841.423 470.478 C 836.629 471.777 830.979 466.345 828.813 458.354 C 826.648 450.364 828.782 442.821 833.577 441.522 Z " fill="rgb(235,235,235)"/></g><g opacity="0.5"><path d=" M 848.305 411.73 C 850.547 410.537 853.981 412.602 855.969 416.339 C 857.957 420.076 857.75 424.078 855.508 425.27 C 853.266 426.463 849.832 424.398 847.844 420.661 C 845.856 416.924 846.063 412.922 848.305 411.73 Z " fill="rgb(235,235,235)"/></g><g opacity="0.5"><path d=" M 391 472.546 C 391 464.267 397.721 457.546 406 457.546 C 414.279 457.546 421 464.267 421 472.546 C 421 480.825 414.279 487.546 406 487.546 C 397.721 487.546 391 480.825 391 472.546 Z " fill="rgb(235,235,235)"/></g><g opacity="0.5"><path d=" M 294.5 540.022 C 294.5 531.743 301.221 525.022 309.5 525.022 C 317.779 525.022 324.5 531.743 324.5 540.022 C 324.5 548.301 317.779 555.022 309.5 555.022 C 301.221 555.022 294.5 548.301 294.5 540.022 Z " fill="rgb(235,235,235)"/></g><g opacity="0.5"><path d=" M 395.5 630.474 C 395.5 626.334 398.861 622.974 403 622.974 C 407.139 622.974 410.5 626.334 410.5 630.474 C 410.5 634.613 407.139 637.974 403 637.974 C 398.861 637.974 395.5 634.613 395.5 630.474 Z " fill="rgb(235,235,235)"/></g><g opacity="0.5"><path d=" M 248 665.906 C 248 662.318 250.913 659.406 254.5 659.406 C 258.087 659.406 261 662.318 261 665.906 C 261 669.493 258.087 672.406 254.5 672.406 C 250.913 672.406 248 669.493 248 665.906 Z " fill="rgb(235,235,235)"/></g><g opacity="0.5"><path d=" M 239.16 604.034 C 241.129 603.036 243.538 603.824 244.536 605.793 C 245.535 607.762 244.746 610.171 242.777 611.169 C 240.808 612.168 238.399 611.38 237.401 609.411 C 236.403 607.442 237.191 605.033 239.16 604.034 Z " fill="rgb(235,235,235)"/></g><g opacity="0.5"><path d=" M 613.364 457.657 C 615.145 458.961 615.532 461.466 614.227 463.247 C 612.922 465.028 610.417 465.415 608.636 464.11 C 606.856 462.805 606.469 460.3 607.774 458.519 C 609.078 456.738 611.584 456.352 613.364 457.657 Z " fill="rgb(235,235,235)"/></g><g opacity="0.5"><path d=" M 734.449 499.125 C 734.09 501.303 732.031 502.781 729.853 502.422 C 727.674 502.064 726.197 500.005 726.555 497.826 C 726.913 495.648 728.973 494.17 731.151 494.528 C 733.329 494.887 734.807 496.946 734.449 499.125 Z " fill="rgb(235,235,235)"/></g><g opacity="0.5"><path d=" M 742.169 347.794 C 740.854 348.209 739.448 347.479 739.033 346.164 C 738.617 344.849 739.347 343.443 740.662 343.027 C 741.978 342.611 743.383 343.342 743.799 344.657 C 744.215 345.972 743.485 347.378 742.169 347.794 Z " fill="rgb(235,235,235)"/></g><g opacity="0.5"><path d=" M 665.5 375.616 C 663.954 374.039 663.979 371.505 665.556 369.959 C 667.132 368.414 669.667 368.439 671.212 370.015 C 672.758 371.592 672.733 374.126 671.156 375.672 C 669.58 377.217 667.045 377.192 665.5 375.616 Z " fill="rgb(235,235,235)"/></g><g opacity="0.5"><path d=" M 798.578 381.297 C 799.285 379.206 801.557 378.082 803.648 378.789 C 805.74 379.497 806.863 381.769 806.156 383.86 C 805.449 385.951 803.177 387.075 801.086 386.368 C 798.994 385.661 797.871 383.389 798.578 381.297 Z " fill="rgb(235,235,235)"/></g><g opacity="0.5"><path d=" M 796.715 420.511 C 799.719 420.077 802.51 422.165 802.943 425.169 C 803.376 428.173 801.289 430.964 798.285 431.397 C 795.281 431.83 792.49 429.743 792.057 426.738 C 791.624 423.734 793.711 420.944 796.715 420.511 Z " fill="rgb(235,235,235)"/></g><g opacity="0.5"><path d=" M 457 376.122 C 457 373.914 458.792 372.122 461 372.122 C 463.208 372.122 465 373.914 465 376.122 C 465 378.33 463.208 380.122 461 380.122 C 458.792 380.122 457 378.33 457 376.122 Z " fill="rgb(235,235,235)"/></g><g opacity="0.5"><path d=" M 272 657.974 C 272 655.766 273.792 653.974 276 653.974 C 278.208 653.974 280 655.766 280 657.974 C 280 660.181 278.208 661.974 276 661.974 C 273.792 661.974 272 660.181 272 657.974 Z " fill="rgb(235,235,235)"/></g><g opacity="0.5"><path d=" M 254.036 622.821 C 255.267 622.197 256.772 622.69 257.396 623.92 C 258.02 625.151 257.528 626.656 256.297 627.28 C 255.067 627.904 253.561 627.412 252.937 626.181 C 252.313 624.951 252.806 623.445 254.036 622.821 Z " fill="rgb(235,235,235)"/></g><g opacity="0.5"><path d=" M 603.563 480.227 C 605.344 481.532 605.73 484.037 604.425 485.818 C 603.121 487.599 600.616 487.985 598.835 486.681 C 597.054 485.376 596.667 482.871 597.972 481.09 C 599.277 479.309 601.782 478.923 603.563 480.227 Z " fill="rgb(235,235,235)"/></g><g opacity="0.5"><path d=" M 855.914 540.722 C 855.556 542.9 853.496 544.378 851.318 544.02 C 849.139 543.661 847.662 541.602 848.02 539.424 C 848.379 537.245 850.438 535.768 852.616 536.126 C 854.795 536.484 856.272 538.544 855.914 540.722 Z " fill="rgb(235,235,235)"/></g><g opacity="0.5"><path d=" M 729.206 351.905 C 727.101 352.571 724.852 351.402 724.186 349.297 C 723.521 347.192 724.689 344.943 726.794 344.278 C 728.899 343.612 731.148 344.781 731.814 346.886 C 732.479 348.991 731.311 351.24 729.206 351.905 Z " fill="rgb(235,235,235)"/></g><g opacity="0.5"><path d=" M 657.643 357.711 C 656.097 356.135 656.123 353.6 657.699 352.055 C 659.275 350.509 661.81 350.534 663.356 352.111 C 664.901 353.687 664.876 356.222 663.299 357.768 C 661.723 359.313 659.188 359.288 657.643 357.711 Z " fill="rgb(235,235,235)"/></g><g opacity="0.5"><path d=" M 823.053 383.839 C 823.76 381.748 826.032 380.624 828.124 381.331 C 830.215 382.038 831.339 384.31 830.632 386.402 C 829.925 388.493 827.653 389.617 825.561 388.91 C 823.47 388.202 822.346 385.93 823.053 383.839 Z " fill="rgb(235,235,235)"/></g><g opacity="0.5"><path d=" M 831.397 423.517 C 833.582 423.202 835.612 424.72 835.927 426.905 C 836.242 429.09 834.723 431.12 832.538 431.435 C 830.353 431.75 828.324 430.232 828.009 428.047 C 827.694 425.862 829.212 423.832 831.397 423.517 Z " fill="rgb(235,235,235)"/></g><g opacity="0.5"><path d=" M 481 370.69 C 481 368.482 482.792 366.69 485 366.69 C 487.208 366.69 489 368.482 489 370.69 C 489 372.897 487.208 374.69 485 374.69 C 482.792 374.69 481 372.897 481 370.69 Z " fill="rgb(235,235,235)"/></g><g opacity="0.5"><path d=" M 278.5 688.925 C 278.5 686.718 280.292 684.925 282.5 684.925 C 284.708 684.925 286.5 686.718 286.5 688.925 C 286.5 691.133 284.708 692.925 282.5 692.925 C 280.292 692.925 278.5 691.133 278.5 688.925 Z " fill="rgb(235,235,235)"/></g><g opacity="0.5"><path d=" M 230.191 642.778 C 232.16 641.779 234.57 642.567 235.568 644.537 C 236.566 646.506 235.778 648.915 233.809 649.913 C 231.84 650.911 229.431 650.123 228.433 648.154 C 227.434 646.185 228.222 643.776 230.191 642.778 Z " fill="rgb(235,235,235)"/></g><g opacity="0.5"><path d=" M 574.753 467.178 C 576.534 468.483 576.921 470.988 575.616 472.769 C 574.311 474.55 571.806 474.937 570.025 473.632 C 568.244 472.327 567.858 469.822 569.162 468.041 C 570.467 466.26 572.972 465.874 574.753 467.178 Z " fill="rgb(235,235,235)"/></g><g opacity="0.5"><path d=" M 854.524 509.126 C 854.166 511.304 852.106 512.782 849.928 512.423 C 847.75 512.065 846.272 510.006 846.63 507.827 C 846.989 505.649 849.048 504.171 851.226 504.529 C 853.405 504.888 854.883 506.947 854.524 509.126 Z " fill="rgb(235,235,235)"/></g><g opacity="0.5"><path d=" M 759.26 313.951 C 757.155 314.616 754.906 313.448 754.241 311.343 C 753.575 309.238 754.744 306.989 756.849 306.323 C 758.954 305.658 761.203 306.826 761.868 308.931 C 762.534 311.036 761.365 313.285 759.26 313.951 Z " fill="rgb(235,235,235)"/></g><g opacity="0.5"><path d=" M 705.716 375.889 C 703.398 373.524 703.435 369.721 705.8 367.403 C 708.166 365.084 711.968 365.122 714.287 367.487 C 716.606 369.852 716.568 373.655 714.203 375.973 C 711.838 378.292 708.035 378.254 705.716 375.889 Z " fill="rgb(235,235,235)"/></g><g opacity="0.5"><path d=" M 819.217 414.222 C 819.659 412.915 821.079 412.213 822.385 412.655 C 823.692 413.097 824.394 414.516 823.953 415.823 C 823.511 417.13 822.091 417.832 820.784 417.39 C 819.477 416.948 818.775 415.529 819.217 414.222 Z " fill="rgb(235,235,235)"/></g><g opacity="0.5"><path d=" M 679.429 568.945 C 681.614 568.63 683.644 570.148 683.959 572.333 C 684.274 574.518 682.756 576.548 680.571 576.863 C 678.386 577.178 676.356 575.66 676.041 573.475 C 675.726 571.29 677.244 569.26 679.429 568.945 Z " fill="rgb(235,235,235)"/></g><g opacity="0.5"><path d=" M 527.5 411 C 527.5 408.792 529.292 407 531.5 407 C 533.708 407 535.5 408.792 535.5 411 C 535.5 413.208 533.708 415 531.5 415 C 529.292 415 527.5 413.208 527.5 411 Z " fill="rgb(235,235,235)"/></g><g opacity="0.5"><path d=" M 328.5 664.925 C 328.5 662.718 330.292 660.925 332.5 660.925 C 334.708 660.925 336.5 662.718 336.5 664.925 C 336.5 667.133 334.708 668.925 332.5 668.925 C 330.292 668.925 328.5 667.133 328.5 664.925 Z " fill="rgb(235,235,235)"/></g><g opacity="0.5"><path d=" M 402 661.974 C 402 659.766 403.792 657.974 406 657.974 C 408.208 657.974 410 659.766 410 661.974 C 410 664.181 408.208 665.974 406 665.974 C 403.792 665.974 402 664.181 402 661.974 Z " fill="rgb(235,235,235)"/></g><g opacity="0.5"><path d=" M 255.5 691.044 C 255.5 689.94 256.396 689.044 257.5 689.044 C 258.604 689.044 259.5 689.94 259.5 691.044 C 259.5 692.147 258.604 693.044 257.5 693.044 C 256.396 693.044 255.5 692.147 255.5 691.044 Z " fill="rgb(235,235,235)"/></g><g opacity="0.5"><path d=" M 234.763 617.475 C 236.732 616.477 239.141 617.265 240.139 619.234 C 241.138 621.203 240.35 623.612 238.381 624.611 C 236.412 625.609 234.002 624.821 233.004 622.852 C 232.006 620.883 232.794 618.474 234.763 617.475 Z " fill="rgb(235,235,235)"/></g><g opacity="0.5"><path d=" M 599.388 459.813 C 601.169 461.118 601.555 463.623 600.25 465.404 C 598.946 467.185 596.441 467.572 594.66 466.267 C 592.879 464.962 592.492 462.457 593.797 460.676 C 595.102 458.895 597.607 458.509 599.388 459.813 Z " fill="rgb(235,235,235)"/></g><g opacity="0.5"><path d=" M 817.935 579.601 C 817.577 581.779 815.517 583.257 813.339 582.899 C 811.161 582.54 809.683 580.481 810.041 578.303 C 810.4 576.124 812.459 574.647 814.638 575.005 C 816.816 575.363 818.294 577.423 817.935 579.601 Z " fill="rgb(235,235,235)"/></g><g opacity="0.5"><path d=" M 768.705 342.337 C 766.6 343.003 764.351 341.834 763.685 339.729 C 763.02 337.624 764.188 335.375 766.293 334.709 C 768.398 334.044 770.648 335.213 771.313 337.317 C 771.979 339.422 770.81 341.672 768.705 342.337 Z " fill="rgb(235,235,235)"/></g><g opacity="0.5"><path d=" M 676.356 366.057 C 675.196 364.875 675.215 362.973 676.398 361.814 C 677.58 360.655 679.482 360.674 680.641 361.856 C 681.8 363.039 681.781 364.94 680.599 366.099 C 679.416 367.259 677.515 367.24 676.356 366.057 Z " fill="rgb(235,235,235)"/></g><g opacity="0.5"><path d=" M 798.249 403.242 C 798.957 401.151 801.229 400.027 803.32 400.734 C 805.411 401.441 806.535 403.713 805.828 405.805 C 805.121 407.896 802.849 409.02 800.757 408.313 C 798.666 407.605 797.542 405.333 798.249 403.242 Z " fill="rgb(235,235,235)"/></g><g opacity="0.5"><path d=" M 743.128 395.244 C 743.835 393.152 746.107 392.028 748.199 392.736 C 750.29 393.443 751.414 395.715 750.707 397.806 C 749.999 399.897 747.727 401.021 745.636 400.314 C 743.545 399.607 742.421 397.335 743.128 395.244 Z " fill="rgb(235,235,235)"/></g><g opacity="0.5"><path d=" M 800.998 437.895 C 803.183 437.58 805.213 439.099 805.528 441.284 C 805.843 443.469 804.325 445.499 802.14 445.814 C 799.955 446.129 797.925 444.61 797.61 442.425 C 797.295 440.24 798.813 438.21 800.998 437.895 Z " fill="rgb(235,235,235)"/></g><g opacity="0.5"><path d=" M 235.526 714.724 C 236.868 713.962 238.843 714.902 239.933 716.822 C 241.022 718.742 240.817 720.92 239.474 721.682 C 238.132 722.444 236.157 721.504 235.067 719.584 C 233.978 717.664 234.183 715.486 235.526 714.724 Z " fill="rgb(235,235,235)"/></g><g opacity="0.5"><path d=" M 286.5 664.425 C 286.5 660.286 289.861 656.925 294 656.925 C 298.139 656.925 301.5 660.286 301.5 664.425 C 301.5 668.565 298.139 671.925 294 671.925 C 289.861 671.925 286.5 668.565 286.5 664.425 Z " fill="rgb(235,235,235)"/></g><g opacity="0.5"><path d=" M 258.783 637.251 C 260.752 636.252 263.161 637.041 264.159 639.01 C 265.157 640.979 264.369 643.388 262.4 644.386 C 260.431 645.384 258.022 644.596 257.024 642.627 C 256.025 640.658 256.814 638.249 258.783 637.251 Z " fill="rgb(235,235,235)"/></g><g opacity="0.5"><path d=" M 594.204 490.373 C 596.43 492.004 596.914 495.136 595.282 497.362 C 593.651 499.588 590.52 500.072 588.293 498.441 C 586.067 496.81 585.584 493.678 587.215 491.452 C 588.846 489.225 591.978 488.742 594.204 490.373 Z " fill="rgb(235,235,235)"/></g><g opacity="0.5"><path d=" M 842.085 535.456 C 841.727 537.634 839.668 539.112 837.489 538.754 C 835.311 538.395 833.833 536.336 834.192 534.157 C 834.55 531.979 836.609 530.501 838.788 530.86 C 840.966 531.218 842.444 533.277 842.085 535.456 Z " fill="rgb(235,235,235)"/></g><g opacity="0.5"><path d=" M 730.151 314.764 C 728.046 315.429 725.797 314.261 725.132 312.156 C 724.466 310.051 725.635 307.802 727.74 307.136 C 729.845 306.471 732.094 307.639 732.759 309.744 C 733.425 311.849 732.256 314.098 730.151 314.764 Z " fill="rgb(235,235,235)"/></g><g opacity="0.5"><path d=" M 691.256 346.892 C 689.71 345.316 689.735 342.781 691.312 341.236 C 692.888 339.69 695.423 339.716 696.968 341.292 C 698.514 342.868 698.489 345.403 696.912 346.949 C 695.336 348.494 692.801 348.469 691.256 346.892 Z " fill="rgb(235,235,235)"/></g><g opacity="0.5"><path d=" M 585.234 624.147 C 585.941 622.056 588.213 620.932 590.305 621.639 C 592.396 622.346 593.52 624.618 592.813 626.71 C 592.106 628.801 589.833 629.925 587.742 629.218 C 585.651 628.511 584.527 626.239 585.234 624.147 Z " fill="rgb(235,235,235)"/></g><g opacity="0.5"><path d=" M 817.418 464.323 C 819.603 464.008 821.633 465.526 821.948 467.711 C 822.263 469.896 820.745 471.926 818.56 472.241 C 816.375 472.556 814.345 471.038 814.03 468.853 C 813.715 466.668 815.233 464.638 817.418 464.323 Z " fill="rgb(235,235,235)"/></g><g opacity="0.5"><path d=" M 514 367.228 C 514 365.021 515.792 363.228 518 363.228 C 520.208 363.228 522 365.021 522 367.228 C 522 369.436 520.208 371.228 518 371.228 C 515.792 371.228 514 369.436 514 367.228 Z " fill="rgb(235,235,235)"/></g><g opacity="0.5"><path d=" M 268 723.406 C 268 721.198 269.792 719.406 272 719.406 C 274.208 719.406 276 721.198 276 723.406 C 276 725.614 274.208 727.406 272 727.406 C 269.792 727.406 268 725.614 268 723.406 Z " fill="rgb(235,235,235)"/></g><g opacity="0.5"><path d=" M 477 436.122 C 477 433.914 478.792 432.122 481 432.122 C 483.208 432.122 485 433.914 485 436.122 C 485 438.33 483.208 440.122 481 440.122 C 478.792 440.122 477 438.33 477 436.122 Z " fill="rgb(235,235,235)"/></g><g opacity="0.5"><path d=" M 588 423.406 C 588 421.198 589.792 419.406 592 419.406 C 594.208 419.406 596 421.198 596 423.406 C 596 425.614 594.208 427.406 592 427.406 C 589.792 427.406 588 425.614 588 423.406 Z " fill="rgb(235,235,235)"/></g><g opacity="0.5"><path d=" M 455.5 564.904 C 455.5 562.696 457.292 560.904 459.5 560.904 C 461.708 560.904 463.5 562.696 463.5 564.904 C 463.5 567.111 461.708 568.904 459.5 568.904 C 457.292 568.904 455.5 567.111 455.5 564.904 Z " fill="rgb(235,235,235)"/></g><g opacity="0.5"><path d=" M 403 552.952 C 403 550.744 404.792 548.952 407 548.952 C 409.208 548.952 411 550.744 411 552.952 C 411 555.159 409.208 556.952 407 556.952 C 404.792 556.952 403 555.159 403 552.952 Z " fill="rgb(235,235,235)"/></g><g opacity="0.5"><path d=" M 386 431.476 C 386 429.268 387.792 427.476 390 427.476 C 392.208 427.476 394 429.268 394 431.476 C 394 433.684 392.208 435.476 390 435.476 C 387.792 435.476 386 433.684 386 431.476 Z " fill="rgb(235,235,235)"/></g><g opacity="0.5"><path d=" M 611.5 342.524 C 611.5 340.316 613.292 338.524 615.5 338.524 C 617.708 338.524 619.5 340.316 619.5 342.524 C 619.5 344.732 617.708 346.524 615.5 346.524 C 613.292 346.524 611.5 344.732 611.5 342.524 Z " fill="rgb(235,235,235)"/></g><g opacity="0.5"><path d=" M 479 484.022 C 479 481.814 480.792 480.022 483 480.022 C 485.208 480.022 487 481.814 487 484.022 C 487 486.229 485.208 488.022 483 488.022 C 480.792 488.022 479 486.229 479 484.022 Z " fill="rgb(235,235,235)"/></g><g opacity="0.5"><path d=" M 628 539.428 C 628 537.22 629.792 535.428 632 535.428 C 634.208 535.428 636 537.22 636 539.428 C 636 541.635 634.208 543.428 632 543.428 C 629.792 543.428 628 541.635 628 539.428 Z " fill="rgb(235,235,235)"/></g><g opacity="0.5"><path d=" M 495.5 680.925 C 495.5 678.718 497.292 676.925 499.5 676.925 C 501.708 676.925 503.5 678.718 503.5 680.925 C 503.5 683.133 501.708 684.925 499.5 684.925 C 497.292 684.925 495.5 683.133 495.5 680.925 Z " fill="rgb(235,235,235)"/></g><g opacity="0.5"><path d=" M 659.5 447.406 C 659.5 445.198 661.292 443.406 663.5 443.406 C 665.708 443.406 667.5 445.198 667.5 447.406 C 667.5 449.614 665.708 451.406 663.5 451.406 C 661.292 451.406 659.5 449.614 659.5 447.406 Z " fill="rgb(235,235,235)"/></g><g opacity="0.5"><path d=" M 527 588.904 C 527 586.696 528.792 584.904 531 584.904 C 533.208 584.904 535 586.696 535 588.904 C 535 591.111 533.208 592.904 531 592.904 C 528.792 592.904 527 591.111 527 588.904 Z " fill="rgb(235,235,235)"/></g><g opacity="0.5"><path d=" M 228 469.952 C 228 467.744 229.792 465.952 232 465.952 C 234.208 465.952 236 467.744 236 469.952 C 236 472.159 234.208 473.952 232 473.952 C 229.792 473.952 228 472.159 228 469.952 Z " fill="rgb(235,235,235)"/></g><g opacity="0.5"><path d=" M 131.5 537.428 C 131.5 535.22 133.292 533.428 135.5 533.428 C 137.708 533.428 139.5 535.22 139.5 537.428 C 139.5 539.635 137.708 541.428 135.5 541.428 C 133.292 541.428 131.5 539.635 131.5 537.428 Z " fill="rgb(235,235,235)"/></g><g opacity="0.5"><path d=" M 308 713.406 C 308 711.198 309.792 709.406 312 709.406 C 314.208 709.406 316 711.198 316 713.406 C 316 715.614 314.208 717.406 312 717.406 C 309.792 717.406 308 715.614 308 713.406 Z " fill="rgb(235,235,235)"/></g><g opacity="0.5"><path d=" M 628 413.406 C 628 411.198 629.792 409.406 632 409.406 C 634.208 409.406 636 411.198 636 413.406 C 636 415.614 634.208 417.406 632 417.406 C 629.792 417.406 628 415.614 628 413.406 Z " fill="rgb(235,235,235)"/></g><g opacity="0.5"><path d=" M 495.5 554.904 C 495.5 552.696 497.292 550.904 499.5 550.904 C 501.708 550.904 503.5 552.696 503.5 554.904 C 503.5 557.111 501.708 558.904 499.5 558.904 C 497.292 558.904 495.5 557.111 495.5 554.904 Z " fill="rgb(235,235,235)"/></g><g opacity="0.5"><path d=" M 443 542.952 C 443 540.744 444.792 538.952 447 538.952 C 449.208 538.952 451 540.744 451 542.952 C 451 545.159 449.208 546.952 447 546.952 C 444.792 546.952 443 545.159 443 542.952 Z " fill="rgb(235,235,235)"/></g><g opacity="0.5"><path d=" M 426 421.476 C 426 419.268 427.792 417.476 430 417.476 C 432.208 417.476 434 419.268 434 421.476 C 434 423.684 432.208 425.476 430 425.476 C 427.792 425.476 426 423.684 426 421.476 Z " fill="rgb(235,235,235)"/></g><g opacity="0.5"><path d=" M 651.5 332.524 C 651.5 330.316 653.292 328.524 655.5 328.524 C 657.708 328.524 659.5 330.316 659.5 332.524 C 659.5 334.732 657.708 336.524 655.5 336.524 C 653.292 336.524 651.5 334.732 651.5 332.524 Z " fill="rgb(235,235,235)"/></g><g opacity="0.5"><path d=" M 519 474.022 C 519 471.814 520.792 470.022 523 470.022 C 525.208 470.022 527 471.814 527 474.022 C 527 476.229 525.208 478.022 523 478.022 C 520.792 478.022 519 476.229 519 474.022 Z " fill="rgb(235,235,235)"/></g><g opacity="0.5"><path d=" M 668 529.428 C 668 527.22 669.792 525.428 672 525.428 C 674.208 525.428 676 527.22 676 529.428 C 676 531.635 674.208 533.428 672 533.428 C 669.792 533.428 668 531.635 668 529.428 Z " fill="rgb(235,235,235)"/></g><g opacity="0.5"><path d=" M 535.5 670.925 C 535.5 668.718 537.292 666.925 539.5 666.925 C 541.708 666.925 543.5 668.718 543.5 670.925 C 543.5 673.133 541.708 674.925 539.5 674.925 C 537.292 674.925 535.5 673.133 535.5 670.925 Z " fill="rgb(235,235,235)"/></g><g opacity="0.5"><path d=" M 699.5 437.406 C 699.5 435.198 701.292 433.406 703.5 433.406 C 705.708 433.406 707.5 435.198 707.5 437.406 C 707.5 439.614 705.708 441.406 703.5 441.406 C 701.292 441.406 699.5 439.614 699.5 437.406 Z " fill="rgb(235,235,235)"/></g><g opacity="0.5"><path d=" M 567 578.904 C 567 576.696 568.792 574.904 571 574.904 C 573.208 574.904 575 576.696 575 578.904 C 575 581.111 573.208 582.904 571 582.904 C 568.792 582.904 567 581.111 567 578.904 Z " fill="rgb(235,235,235)"/></g><g opacity="0.5"><path d=" M 268 459.952 C 268 457.744 269.792 455.952 272 455.952 C 274.208 455.952 276 457.744 276 459.952 C 276 462.159 274.208 463.952 272 463.952 C 269.792 463.952 268 462.159 268 459.952 Z " fill="rgb(235,235,235)"/></g><g opacity="0.5"><path d=" M 171.5 527.428 C 171.5 525.22 173.292 523.428 175.5 523.428 C 177.708 523.428 179.5 525.22 179.5 527.428 C 179.5 529.635 177.708 531.428 175.5 531.428 C 173.292 531.428 171.5 529.635 171.5 527.428 Z " fill="rgb(235,235,235)"/></g><g opacity="0.5"><path d=" M 348 703.406 C 348 701.198 349.792 699.406 352 699.406 C 354.208 699.406 356 701.198 356 703.406 C 356 705.614 354.208 707.406 352 707.406 C 349.792 707.406 348 705.614 348 703.406 Z " fill="rgb(235,235,235)"/></g><g opacity="0.5"><path d=" M 668 403.406 C 668 401.198 669.792 399.406 672 399.406 C 674.208 399.406 676 401.198 676 403.406 C 676 405.614 674.208 407.406 672 407.406 C 669.792 407.406 668 405.614 668 403.406 Z " fill="rgb(235,235,235)"/></g><g opacity="0.5"><path d=" M 535.5 544.904 C 535.5 542.696 537.292 540.904 539.5 540.904 C 541.708 540.904 543.5 542.696 543.5 544.904 C 543.5 547.111 541.708 548.904 539.5 548.904 C 537.292 548.904 535.5 547.111 535.5 544.904 Z " fill="rgb(235,235,235)"/></g><g opacity="0.5"><path d=" M 483 532.952 C 483 530.744 484.792 528.952 487 528.952 C 489.208 528.952 491 530.744 491 532.952 C 491 535.159 489.208 536.952 487 536.952 C 484.792 536.952 483 535.159 483 532.952 Z " fill="rgb(235,235,235)"/></g><g opacity="0.5"><path d=" M 466 411.476 C 466 409.268 467.792 407.476 470 407.476 C 472.208 407.476 474 409.268 474 411.476 C 474 413.684 472.208 415.476 470 415.476 C 467.792 415.476 466 413.684 466 411.476 Z " fill="rgb(235,235,235)"/></g><g opacity="0.5"><path d=" M 691.5 322.524 C 691.5 320.316 693.292 318.524 695.5 318.524 C 697.708 318.524 699.5 320.316 699.5 322.524 C 699.5 324.732 697.708 326.524 695.5 326.524 C 693.292 326.524 691.5 324.732 691.5 322.524 Z " fill="rgb(235,235,235)"/></g><g opacity="0.5"><path d=" M 559 464.022 C 559 461.814 560.792 460.022 563 460.022 C 565.208 460.022 567 461.814 567 464.022 C 567 466.229 565.208 468.022 563 468.022 C 560.792 468.022 559 466.229 559 464.022 Z " fill="rgb(235,235,235)"/></g><g opacity="0.5"><path d=" M 835.762 357.638 C 837.182 356.793 839.707 358.41 841.399 361.249 C 843.09 364.087 843.311 367.078 841.892 367.924 C 840.473 368.769 837.948 367.152 836.256 364.314 C 834.565 361.475 834.343 358.484 835.762 357.638 Z " fill="rgb(235,235,235)"/></g><g opacity="0.5"><path d=" M 816.979 325.279 C 817.874 324.633 819.649 325.564 820.939 327.355 C 822.23 329.146 822.55 331.125 821.655 331.77 C 820.759 332.415 818.984 331.484 817.694 329.693 C 816.403 327.902 816.083 325.924 816.979 325.279 Z " fill="rgb(235,235,235)"/></g><g opacity="0.5"><path d=" M 867.191 448.592 C 868.015 448.429 868.948 449.634 869.274 451.282 C 869.6 452.929 869.196 454.399 868.372 454.562 C 867.548 454.725 866.615 453.52 866.289 451.872 C 865.963 450.225 866.367 448.755 867.191 448.592 Z " fill="rgb(235,235,235)"/></g><g opacity="0.5"><path d=" M 876.767 486.383 C 877.36 486.32 877.986 487.625 878.162 489.295 C 878.339 490.965 878.001 492.372 877.408 492.435 C 876.814 492.498 876.189 491.193 876.012 489.523 C 875.836 487.852 876.174 486.445 876.767 486.383 Z " fill="rgb(235,235,235)"/></g><g opacity="0.5"><path d=" M 879.92 498.476 C 880.515 498.442 881.077 499.776 881.173 501.452 C 881.269 503.129 880.863 504.518 880.267 504.552 C 879.672 504.586 879.11 503.253 879.014 501.576 C 878.918 499.899 879.324 498.51 879.92 498.476 Z " fill="rgb(235,235,235)"/></g><g opacity="0.5"><path d=" M 792.139 300.432 C 793.243 299.482 795.309 300.068 796.75 301.74 C 798.191 303.413 798.464 305.543 797.36 306.494 C 796.257 307.444 794.191 306.858 792.75 305.186 C 791.309 303.513 791.036 301.383 792.139 300.432 Z " fill="rgb(235,235,235)"/></g><g opacity="0.5"><path d=" M 708 519.428 C 708 517.22 709.792 515.428 712 515.428 C 714.208 515.428 716 517.22 716 519.428 C 716 521.635 714.208 523.428 712 523.428 C 709.792 523.428 708 521.635 708 519.428 Z " fill="rgb(235,235,235)"/></g><g opacity="0.5"><path d=" M 575.5 660.925 C 575.5 658.718 577.292 656.925 579.5 656.925 C 581.708 656.925 583.5 658.718 583.5 660.925 C 583.5 663.133 581.708 664.925 579.5 664.925 C 577.292 664.925 575.5 663.133 575.5 660.925 Z " fill="rgb(235,235,235)"/></g><g opacity="0.5"><path d=" M 739.5 427.406 C 739.5 425.198 741.292 423.406 743.5 423.406 C 745.708 423.406 747.5 425.198 747.5 427.406 C 747.5 429.614 745.708 431.406 743.5 431.406 C 741.292 431.406 739.5 429.614 739.5 427.406 Z " fill="rgb(235,235,235)"/></g><g opacity="0.5"><path d=" M 607 568.904 C 607 566.696 608.792 564.904 611 564.904 C 613.208 564.904 615 566.696 615 568.904 C 615 571.111 613.208 572.904 611 572.904 C 608.792 572.904 607 571.111 607 568.904 Z " fill="rgb(235,235,235)"/></g><g opacity="0.5"><path d=" M 308 449.952 C 308 447.744 309.792 445.952 312 445.952 C 314.208 445.952 316 447.744 316 449.952 C 316 452.159 314.208 453.952 312 453.952 C 309.792 453.952 308 452.159 308 449.952 Z " fill="rgb(235,235,235)"/></g><g opacity="0.5"><path d=" M 211.5 517.428 C 211.5 515.22 213.292 513.428 215.5 513.428 C 217.708 513.428 219.5 515.22 219.5 517.428 C 219.5 519.635 217.708 521.428 215.5 521.428 C 213.292 521.428 211.5 519.635 211.5 517.428 Z " fill="rgb(235,235,235)"/></g><g opacity="0.5"><path d=" M 388 753.406 C 388 751.198 389.792 749.406 392 749.406 C 394.208 749.406 396 751.198 396 753.406 C 396 755.614 394.208 757.406 392 757.406 C 389.792 757.406 388 755.614 388 753.406 Z " fill="rgb(235,235,235)"/></g><g opacity="0.5"><path d=" M 708 453.406 C 708 451.198 709.792 449.406 712 449.406 C 714.208 449.406 716 451.198 716 453.406 C 716 455.614 714.208 457.406 712 457.406 C 709.792 457.406 708 455.614 708 453.406 Z " fill="rgb(235,235,235)"/></g><g opacity="0.5"><path d=" M 575.5 594.904 C 575.5 592.696 577.292 590.904 579.5 590.904 C 581.708 590.904 583.5 592.696 583.5 594.904 C 583.5 597.111 581.708 598.904 579.5 598.904 C 577.292 598.904 575.5 597.111 575.5 594.904 Z " fill="rgb(235,235,235)"/></g><g opacity="0.5"><path d=" M 523 582.952 C 523 580.744 524.792 578.952 527 578.952 C 529.208 578.952 531 580.744 531 582.952 C 531 585.159 529.208 586.952 527 586.952 C 524.792 586.952 523 585.159 523 582.952 Z " fill="rgb(235,235,235)"/></g><g opacity="0.5"><path d=" M 506 461.476 C 506 459.268 507.792 457.476 510 457.476 C 512.208 457.476 514 459.268 514 461.476 C 514 463.684 512.208 465.476 510 465.476 C 507.792 465.476 506 463.684 506 461.476 Z " fill="rgb(235,235,235)"/></g><g opacity="0.5"><path d=" M 731.5 372.524 C 731.5 370.316 733.292 368.524 735.5 368.524 C 737.708 368.524 739.5 370.316 739.5 372.524 C 739.5 374.732 737.708 376.524 735.5 376.524 C 733.292 376.524 731.5 374.732 731.5 372.524 Z " fill="rgb(235,235,235)"/></g><g opacity="0.5"><path d=" M 599 514.022 C 599 511.814 600.792 510.022 603 510.022 C 605.208 510.022 607 511.814 607 514.022 C 607 516.229 605.208 518.022 603 518.022 C 600.792 518.022 599 516.229 599 514.022 Z " fill="rgb(235,235,235)"/></g><g opacity="0.5"><path d=" M 748 569.428 C 748 567.22 749.792 565.428 752 565.428 C 754.208 565.428 756 567.22 756 569.428 C 756 571.635 754.208 573.428 752 573.428 C 749.792 573.428 748 571.635 748 569.428 Z " fill="rgb(235,235,235)"/></g><g opacity="0.5"><path d=" M 779.5 477.406 C 779.5 475.198 781.292 473.406 783.5 473.406 C 785.708 473.406 787.5 475.198 787.5 477.406 C 787.5 479.614 785.708 481.406 783.5 481.406 C 781.292 481.406 779.5 479.614 779.5 477.406 Z " fill="rgb(235,235,235)"/></g><g opacity="0.5"><path d=" M 348 499.952 C 348 497.744 349.792 495.952 352 495.952 C 354.208 495.952 356 497.744 356 499.952 C 356 502.159 354.208 503.952 352 503.952 C 349.792 503.952 348 502.159 348 499.952 Z " fill="rgb(235,235,235)"/></g><g opacity="0.5"><path d=" M 251.5 567.428 C 251.5 565.22 253.292 563.428 255.5 563.428 C 257.708 563.428 259.5 565.22 259.5 567.428 C 259.5 569.635 257.708 571.428 255.5 571.428 C 253.292 571.428 251.5 569.635 251.5 567.428 Z " fill="rgb(235,235,235)"/></g><g opacity="0.5"><path d=" M 428 773.406 C 428 771.198 429.792 769.406 432 769.406 C 434.208 769.406 436 771.198 436 773.406 C 436 775.614 434.208 777.406 432 777.406 C 429.792 777.406 428 775.614 428 773.406 Z " fill="rgb(235,235,235)"/></g><g opacity="0.5"><path d=" M 748 473.406 C 748 471.198 749.792 469.406 752 469.406 C 754.208 469.406 756 471.198 756 473.406 C 756 475.614 754.208 477.406 752 477.406 C 749.792 477.406 748 475.614 748 473.406 Z " fill="rgb(235,235,235)"/></g><g opacity="0.5"><path d=" M 615.5 614.904 C 615.5 612.696 617.292 610.904 619.5 610.904 C 621.708 610.904 623.5 612.696 623.5 614.904 C 623.5 617.111 621.708 618.904 619.5 618.904 C 617.292 618.904 615.5 617.111 615.5 614.904 Z " fill="rgb(235,235,235)"/></g><g opacity="0.5"><path d=" M 563 602.952 C 563 600.744 564.792 598.952 567 598.952 C 569.208 598.952 571 600.744 571 602.952 C 571 605.159 569.208 606.952 567 606.952 C 564.792 606.952 563 605.159 563 602.952 Z " fill="rgb(235,235,235)"/></g><g opacity="0.5"><path d=" M 546 481.476 C 546 479.268 547.792 477.476 550 477.476 C 552.208 477.476 554 479.268 554 481.476 C 554 483.684 552.208 485.476 550 485.476 C 547.792 485.476 546 483.684 546 481.476 Z " fill="rgb(235,235,235)"/></g><g opacity="0.5"><path d=" M 413.5 622.974 C 413.5 620.766 415.292 618.974 417.5 618.974 C 419.708 618.974 421.5 620.766 421.5 622.974 C 421.5 625.181 419.708 626.974 417.5 626.974 C 415.292 626.974 413.5 625.181 413.5 622.974 Z " fill="rgb(235,235,235)"/></g><g opacity="0.5"><path d=" M 771.5 392.524 C 771.5 390.316 773.292 388.524 775.5 388.524 C 777.708 388.524 779.5 390.316 779.5 392.524 C 779.5 394.732 777.708 396.524 775.5 396.524 C 773.292 396.524 771.5 394.732 771.5 392.524 Z " fill="rgb(235,235,235)"/></g><g opacity="0.5"><path d=" M 788 589.428 C 788 587.22 789.792 585.428 792 585.428 C 794.208 585.428 796 587.22 796 589.428 C 796 591.635 794.208 593.428 792 593.428 C 789.792 593.428 788 591.635 788 589.428 Z " fill="rgb(235,235,235)"/></g><g opacity="0.5"><path d=" M 819.5 497.406 C 819.5 495.198 821.292 493.406 823.5 493.406 C 825.708 493.406 827.5 495.198 827.5 497.406 C 827.5 499.614 825.708 501.406 823.5 501.406 C 821.292 501.406 819.5 499.614 819.5 497.406 Z " fill="rgb(235,235,235)"/></g><g opacity="0.5"><path d=" M 388 519.952 C 388 517.744 389.792 515.952 392 515.952 C 394.208 515.952 396 517.744 396 519.952 C 396 522.159 394.208 523.952 392 523.952 C 389.792 523.952 388 522.159 388 519.952 Z " fill="rgb(235,235,235)"/></g><g opacity="0.5"><path d=" M 291.5 587.428 C 291.5 585.22 293.292 583.428 295.5 583.428 C 297.708 583.428 299.5 585.22 299.5 587.428 C 299.5 589.635 297.708 591.428 295.5 591.428 C 293.292 591.428 291.5 589.635 291.5 587.428 Z " fill="rgb(235,235,235)"/></g><g opacity="0.5"><path d=" M 215.031 667.477 C 217.026 665.997 220.648 667.494 223.114 670.819 C 225.58 674.143 225.963 678.044 223.969 679.523 C 221.974 681.003 218.352 679.506 215.886 676.181 C 213.42 672.857 213.037 668.956 215.031 667.477 Z " fill="rgb(235,235,235)"/></g><g opacity="0.5"><path d=" M 372.646 778.668 C 375.789 772.526 384.323 770.601 391.693 774.372 C 399.064 778.143 402.496 786.19 399.354 792.332 C 396.211 798.474 387.677 800.399 380.307 796.628 C 372.936 792.857 369.504 784.81 372.646 778.668 Z " fill="rgb(235,235,235)"/></g><g opacity="0.5"><path d=" M 302.081 773.701 C 304.672 770.834 310.099 771.512 314.194 775.213 C 318.288 778.914 319.509 784.245 316.919 787.111 C 314.328 789.977 308.901 789.3 304.806 785.599 C 300.712 781.898 299.491 776.567 302.081 773.701 Z " fill="rgb(235,235,235)"/></g><g opacity="0.58"><radialGradient id="_rgradient_0" fx="51.03159029512769%" fy="94.42301630364783%" cx="50%" cy="50%" r="50%" gradientTransform="matrix(1.5259186756996175 -0.16673551840634512 -0.01800784011242621 2.0738952692759183 -0.2539554177935953 -0.45357987543478673)"><stop offset="0%" stop-opacity="1" style="stop-color:rgb(251,152,5)"/><stop offset="2.608695652173913%" stop-opacity="1" style="stop-color:rgb(255,255,0)"/><stop offset="98.26086956521739%" stop-opacity="1" style="stop-color:rgb(249,2,2)"/></radialGradient><path d=" M 147.455 451.266 C 95.083 468.625 51.199 490.7 51.199 524.963 C 51.199 593.421 266.911 649 532.609 649 C 798.306 649 1004 593.421 1004 524.963 C 1004 490.7 962.313 465.528 878.689 440.022 C 939.253 463.625 973.442 481.568 973.442 508.723 C 973.442 570.781 775.911 621.164 532.609 621.164 C 289.306 621.164 93.079 585.283 78.751 515.048 C 79.554 491.231 102.096 475.418 147.455 451.266 Z " fill="url(#_rgradient_0)"/></g><g opacity="0.58"><radialGradient id="_rgradient_1" fx="51.03159029512769%" fy="94.42301630364783%" cx="50%" cy="50%" r="50%" gradientTransform="matrix(1.5259186756996175 -0.16673551840634512 -0.01800784011242621 2.0738952692759183 -0.2539554177935953 -0.45357987543478673)"><stop offset="0%" stop-opacity="1" style="stop-color:rgb(251,152,5)"/><stop offset="2.608695652173913%" stop-opacity="1" style="stop-color:rgb(255,255,0)"/><stop offset="98.26086956521739%" stop-opacity="1" style="stop-color:rgb(249,2,2)"/></radialGradient><path d=" M 221.635 285.107 C 164.316 282.713 111.274 290.177 88.464 333.266 C 42.888 419.36 194.373 589.036 426.536 711.935 C 658.698 834.835 875.431 860.081 921.007 773.987 C 943.817 730.898 924.15 679.958 868.061 609.201 C 905.267 666.899 923.196 705.278 905.118 739.429 C 863.803 817.475 657.661 789.469 445.067 676.929 C 232.473 564.388 84.901 428.498 119.139 333.541 C 135.697 303.959 165.921 294.5 221.635 285.107 Z " fill="url(#_rgradient_1)"/></g><g opacity="0.58"><radialGradient id="_rgradient_2" fx="51.03159029512769%" fy="94.42301630364783%" cx="50%" cy="50%" r="50%" gradientTransform="matrix(1.5259186756996175 -0.16673551840634512 -0.01800784011242621 2.0738952692759183 -0.2539554177935953 -0.45357987543478673)"><stop offset="0%" stop-opacity="1" style="stop-color:rgb(251,152,5)"/><stop offset="2.608695652173913%" stop-opacity="1" style="stop-color:rgb(255,255,0)"/><stop offset="98.26086956521739%" stop-opacity="1" style="stop-color:rgb(249,2,2)"/></radialGradient><path d=" M 244.825 765.952 C 238.804 822.217 242.846 875.039 284.197 900.868 C 366.816 952.475 544.982 816.529 681.813 597.474 C 818.643 378.419 857.497 166.935 774.877 115.328 C 733.527 89.499 681.679 104.891 607.831 154.608 C 667.507 122.468 706.768 107.808 739.541 128.279 C 814.437 175.062 773.517 375.898 648.219 576.49 C 522.921 777.081 378.563 911.812 286.419 870.678 C 258.089 852.061 250.615 821.556 244.825 765.952 Z " fill="url(#_rgradient_2)"/></g><defs><filter id="ubEOJvpjidKUec8Dsxjt3qkHBwXDE7NI" x="-200%" y="-200%" width="400%" height="400%"><feOffset xmlns="http://www.w3.org/2000/svg" in="SourceAlpha" result="offOut" dx="6" dy="6"/><feGaussianBlur xmlns="http://www.w3.org/2000/svg" in="offOut" result="blurOut" stdDeviation="5"/><feComponentTransfer xmlns="http://www.w3.org/2000/svg" in="blurOut" result="opacOut"><feFuncA xmlns="http://www.w3.org/2000/svg" type="table" tableValues="0 0.5"/></feComponentTransfer><feBlend xmlns="http://www.w3.org/2000/svg" in="SourceGraphic" in2="opacOut" mode="normal"/></filter></defs></g></svg>